<?xml version="1.0" encoding="utf-8"?>
<!-- Generator: Adobe Illustrator 24.0.0, SVG Export Plug-In . SVG Version: 6.00 Build 0)  -->
<svg version="1.1" id="walmart_health_logo" xmlns="http://www.w3.org/2000/svg" xmlns:xlink="http://www.w3.org/1999/xlink"
	 x="0px" y="0px" viewBox="0 0 480.5 73.4" style="enable-background:new 0 0 480.5 73.4;" xml:space="preserve">
<style type="text/css">
	.st0{fill:#FFFFFF;}
	.st1{fill:#FFC20E;}
</style>
<g id="health">
	<path class="st0" d="M315.5,16.4c0-0.6,0.5-1.2,1.1-1.2h2.4c0.7,0,1.1,0.5,1.1,1.2v17.7h24.6V16.4c0-0.6,0.5-1.2,1.1-1.2h2.4
		c0.6,0,1.1,0.5,1.1,1.2v40.2c0,0.6-0.5,1.2-1.1,1.2H346c-0.7,0-1.1-0.6-1.1-1.2V38.2h-24.6v18.4c0,0.6-0.5,1.2-1.1,1.2h-2.4
		c-0.6,0-1.1-0.6-1.1-1.2V16.4z"/>
	<path class="st0" d="M371.9,29.1c7.3,0,12.7,5.4,12.7,12.7c0,0.5-0.1,1.2-0.1,1.7c-0.1,0.7-0.7,1.2-1.3,1.2h-20.4
		c0.1,4.7,4.1,9.6,9.2,9.6c3.7,0,6-1.3,7.6-2.3c1-0.7,1.4-0.9,2.1,0.2l0.7,1c0.5,0.8,0.8,1.2-0.2,1.9c-1.7,1.3-5.4,3.2-10.2,3.2
		c-8.5,0-13.6-6.7-13.6-14.7C358.3,35.8,363.4,29.1,371.9,29.1z M380.1,41.1c-0.1-4.1-3.4-8-8.2-8c-4.7,0-8.5,3.6-9,8H380.1z"/>
	<path class="st0" d="M400.8,39.9c3,0,6,0.9,6,0.9c0.1-5.2-2.4-7.7-6.4-7.7c-3.1,0-5.2,1.2-6.5,1.6c-0.7,0.3-1.1-0.1-1.3-0.7
		l-0.6-1.6c-0.2-0.8,0.2-1.2,0.9-1.5c1.4-0.6,4-1.8,7.8-1.8c7.2,0,10.5,4.2,10.5,11.8v16c0,0.7-0.4,1.1-1.1,1.1
		c-1.8,0-2.8-1.4-3-3.3c-1.5,1.5-4.4,3.7-8.8,3.7c-4.9,0-8.7-3.5-8.7-9.2C389.5,43.9,393.5,39.9,400.8,39.9z M399,54.3
		c3.5,0,6.5-1.9,7.7-3.8v-5.7c-0.9-0.5-3.1-1.1-6-1.1c-3.9,0-6.8,1.9-6.8,5.5C394,52.1,395.9,54.3,399,54.3z"/>
	<path class="st0" d="M420.3,16.6c0-0.7,0.6-1.3,1.3-1.3h1.8c0.7,0,1.3,0.7,1.3,1.3v39.8c0,0.7-0.7,1.3-1.3,1.3h-1.8
		c-0.7,0-1.3-0.6-1.3-1.3V16.6z"/>
	<path class="st0" d="M432.3,33.6c-0.9,0-1.4-0.6-1.4-1.3V31c0-0.8,0.5-1.3,1.4-1.3h3.7v-7.8c0-0.7,0.7-1.3,1.3-1.3l1.9-0.1
		c0.7-0.1,1.3,0.6,1.3,1.3v7.9h8.2c0.8,0,1.4,0.5,1.4,1.3v1.2c0,0.7-0.6,1.3-1.4,1.3h-8.2v16.6c0,2.9,1.8,4.2,3.8,4.2
		c1.7,0,3.2-0.6,4.3-1.2c1.1-0.7,1.5-0.1,1.8,0.6l0.5,1.2c0.4,0.9,0.2,1.4-0.5,1.8c-1.3,0.7-3.8,1.7-6.6,1.7c-4.9,0-7.7-3.9-7.7-8.2
		V33.6H432.3z"/>
	<path class="st0" d="M457,16.6c0-0.7,0.6-1.3,1.3-1.3h1.8c0.7,0,1.3,0.7,1.3,1.3v16.1c0,0,3.3-3.6,8.9-3.6c7,0,10.1,4.3,10.1,12.5
		v14.8c0,0.7-0.7,1.3-1.3,1.3h-1.9c-0.7,0-1.3-0.6-1.3-1.3V41.6c0-5.3-1.6-8.4-5.9-8.4c-5.3,0-8.6,4-8.6,4v19.2
		c0,0.7-0.7,1.3-1.3,1.3h-1.8c-0.7,0-1.3-0.6-1.3-1.3L457,16.6L457,16.6z"/>
</g>
<g id="spark">
	<path class="st1" d="M268.7,24.7c1.7,0,3.1-0.9,3.3-2l1.7-19.2c0-1.9-2.2-3.5-5-3.5c-2.8,0-5,1.6-5,3.5l1.7,19.2
		C265.6,23.8,267,24.7,268.7,24.7L268.7,24.7z"/>
	<path class="st1" d="M258.3,30.7c0.9-1.5,0.8-3.2-0.1-3.9l-15.8-11.1c-1.6-1-4.1,0.2-5.5,2.6c-1.4,2.4-1.1,5.1,0.5,6.1l17.5,8.1
		C256,33,257.4,32.2,258.3,30.7L258.3,30.7z"/>
	<path class="st1" d="M279.1,30.7c0.9,1.5,2.3,2.3,3.4,1.9l17.5-8.1c1.6-1,1.9-3.7,0.5-6.1c-1.4-2.4-3.9-3.6-5.5-2.6l-15.8,11.1
		C278.3,27.5,278.2,29.2,279.1,30.7L279.1,30.7z"/>
	<path class="st1" d="M268.7,48.7c1.7,0,3.1,0.9,3.3,2l1.7,19.2c0,1.9-2.2,3.5-5,3.5c-2.8,0-5-1.6-5-3.5l1.7-19.2
		C265.6,49.6,267,48.7,268.7,48.7L268.7,48.7z"/>
	<path class="st1" d="M279.1,42.7c0.9-1.5,2.3-2.3,3.4-1.8L300,49c1.6,0.9,1.9,3.7,0.5,6.1c-1.4,2.4-3.9,3.6-5.5,2.6l-15.8-11.1
		C278.3,45.8,278.2,44.2,279.1,42.7L279.1,42.7z"/>
	<path class="st1" d="M258.3,42.7c0.9,1.5,0.8,3.2-0.1,3.9l-15.8,11.1c-1.6,0.9-4.1-0.2-5.5-2.6c-1.4-2.4-1.1-5.1,0.5-6.1l17.5-8.1
		C256,40.4,257.5,41.2,258.3,42.7L258.3,42.7z"/>
</g>
<g id="walmart">
	<g>
		<path class="st0" d="M170,46.3c0,0.6-0.1,1.2-0.2,1.7c-0.7,2.2-2.9,4.1-5.8,4.1c-2.4,0-4.2-1.3-4.2-4.2c0-4.3,4.8-5.6,10.2-5.5
			L170,46.3L170,46.3z M178.6,38.8c0-7.2-3.1-13.5-13.4-13.5c-5.3,0-9.6,1.5-11.9,2.8l1.7,5.8c2.1-1.3,5.5-2.4,8.6-2.4
			c5.3,0,6.1,3,6.1,4.9v0.4c-11.5,0-18.7,3.9-18.7,12c0,4.9,3.7,9.6,10.1,9.6c3.9,0,7.2-1.6,9.2-4.1h0.2c0,0,1.3,5.5,8.5,3.4
			c-0.4-2.3-0.5-4.7-0.5-7.6V38.8z"/>
		<path class="st0" d="M0,15.5c0,0,7.5,30.7,8.7,35.7c1.4,5.8,3.9,7.9,11.2,6.5l4.7-19c1.2-4.7,2-8.1,2.7-12.9h0.1
			c0.5,4.8,1.3,8.2,2.3,12.9c0,0,1.9,8.6,2.9,13.2c1,4.5,3.7,7.4,10.8,5.8l11.1-42.2h-9l-3.8,18.2c-1,5.3-1.9,9.5-2.7,14.3h-0.1
			c-0.7-4.8-1.5-8.8-2.5-14l-4-18.6H23l-4.2,18.1c-1.2,5.5-2.3,9.9-3,14.6h-0.1c-0.7-4.4-1.7-10-2.8-15.3c0,0-2.5-13-3.4-17.4
			L0,15.5L0,15.5z"/>
		<path class="st0" d="M71.5,46.3c0,0.6-0.1,1.2-0.2,1.7c-0.7,2.2-2.9,4.1-5.8,4.1c-2.4,0-4.2-1.3-4.2-4.2c0-4.3,4.8-5.6,10.2-5.5
			L71.5,46.3L71.5,46.3z M80.1,38.8c0-7.2-3.1-13.5-13.4-13.5c-5.3,0-9.5,1.5-11.8,2.8l1.7,5.8c2.1-1.3,5.5-2.4,8.6-2.4
			c5.3,0,6.1,3,6.1,4.9v0.4c-11.5,0-18.7,3.9-18.7,12c0,4.9,3.7,9.6,10.1,9.6c3.9,0,7.2-1.6,9.2-4.1H72c0,0,1.3,5.5,8.5,3.4
			c-0.4-2.3-0.5-4.7-0.5-7.6C80.1,50,80.1,38.8,80.1,38.8z"/>
	</g>
	<polygon class="st0" points="94.3,48.7 94.3,15.5 85.8,15.5 85.8,57.7 94.3,57.7 	"/>
	<path class="st0" d="M206.4,15.5v31.1c0,4.3,0.8,7.3,2.5,9.1c1.5,1.6,4,2.7,7,2.7c2.5,0,5-0.5,6.2-0.9l-0.1-6.7
		c-0.9,0.2-1.9,0.4-3.2,0.4c-2.9,0-3.9-1.9-3.9-5.7V33.5h7.5v-8.1h-7.5v-10L206.4,15.5L206.4,15.5z"/>
	<path class="st0" d="M184.3,26v31.7h8.8V41.4c0-0.9,0.1-1.6,0.2-2.3c0.6-3.4,3.2-5.6,7-5.6c1,0,1.8,0.1,2.6,0.2v-8.3
		c-0.7-0.1-1.1-0.2-1.9-0.2c-3.3,0-7.1,2.1-8.6,6.7H192v-6L184.3,26L184.3,26z"/>
	<path class="st0" d="M100.3,26v31.7h8.6V39.1c0-0.9,0.1-1.8,0.4-2.6c0.7-1.9,2.4-4.1,5.2-4.1c3.5,0,5.1,2.9,5.1,7.2v18.1h8.6V38.9
		c0-0.8,0.1-1.8,0.4-2.6c0.7-2.1,2.6-3.9,5.2-3.9c3.5,0,5.2,2.9,5.2,7.9v17.4h8.6V39c0-9.8-5-13.7-10.6-13.7c-2.5,0-4.5,0.6-6.2,1.7
		c-1.5,0.9-2.8,2.2-4,4h-0.1c-1.4-3.4-4.6-5.7-8.7-5.7c-5.4,0-7.8,2.7-9.2,5h-0.1V26L100.3,26L100.3,26z"/>
</g>
</svg>
